<?xml version="1.0" encoding="UTF-8" standalone="no"?>
<!-- Created with Inkscape (http://www.inkscape.org/) -->

<svg
   width="256"
   height="256"
   viewBox="0 0 67.733332 67.733333"
   version="1.1"
   id="svg5"
   inkscape:version="1.2.1 (9c6d41e410, 2022-07-14)"
   sodipodi:docname="delete_node.svg"
   xmlns:inkscape="http://www.inkscape.org/namespaces/inkscape"
   xmlns:sodipodi="http://sodipodi.sourceforge.net/DTD/sodipodi-0.dtd"
   xmlns="http://www.w3.org/2000/svg"
   xmlns:svg="http://www.w3.org/2000/svg">
  <sodipodi:namedview
     id="namedview7"
     pagecolor="#1c1c1c"
     bordercolor="#0d0d0d"
     borderopacity="0.24705882"
     inkscape:showpageshadow="2"
     inkscape:pageopacity="0"
     inkscape:pagecheckerboard="0"
     inkscape:deskcolor="#0e0e0e"
     inkscape:document-units="px"
     showgrid="false"
     inkscape:zoom="2.025849"
     inkscape:cx="60.962095"
     inkscape:cy="178.93732"
     inkscape:window-width="1920"
     inkscape:window-height="991"
     inkscape:window-x="-9"
     inkscape:window-y="-9"
     inkscape:window-maximized="1"
     inkscape:current-layer="g1986"
     showguides="false" />
  <defs
     id="defs2">
    <linearGradient
       id="linearGradient1671"
       inkscape:swatch="solid">
      <stop
         style="stop-color:#000000;stop-opacity:1;"
         offset="0"
         id="stop1669" />
    </linearGradient>
  </defs>
  <g
     inkscape:label="Layer 1"
     inkscape:groupmode="layer"
     id="layer1">
    <g
       id="g1753">
      <g
         id="g5080">
        <g
           id="g1986"
           transform="translate(-0.42860614,0.31019986)">
          <path
             id="path788-75"
             style="fill:#ffffff;fill-opacity:1;stroke:none;stroke-width:3.27058;stroke-linecap:round;stroke-dasharray:none"
             d="M 34.295272 20.577931 A 12.978563 12.978563 0 0 0 30.352361 21.195464 L 34.294756 25.138376 L 38.240768 21.192363 A 12.978563 12.978563 0 0 0 34.295272 20.577931 z M 46.659375 29.611488 L 42.71388 33.556983 L 46.656275 37.499378 A 12.978563 12.978563 0 0 0 47.273808 33.556466 A 12.978563 12.978563 0 0 0 46.659375 29.611488 z M 21.934787 29.613555 A 12.978563 12.978563 0 0 0 21.316737 33.556466 A 12.978563 12.978563 0 0 0 21.93427 37.498861 L 25.877182 33.55595 L 21.934787 29.613555 z M 34.296306 41.974557 L 30.353394 45.917469 A 12.978563 12.978563 0 0 0 34.295272 46.535002 A 12.978563 12.978563 0 0 0 38.238701 45.916952 L 34.296306 41.974557 z " />
          <path
             id="path788-7-3"
             style="color:#000000;fill:#ffffff;stroke-linecap:round"
             d="M 34.294756 12.804762 C 30.73449 12.804762 27.381125 13.706313 24.449879 15.292982 L 26.87402 17.71764 C 29.125233 16.663857 31.639268 16.07433 34.294756 16.07433 C 36.950077 16.07433 39.464173 16.663982 41.715491 17.71764 L 44.139633 15.292982 C 41.208482 13.706449 37.854859 12.804762 34.294756 12.804762 z M 16.031788 23.710556 C 14.444777 26.642043 13.543051 29.995788 13.543051 33.556466 C 13.543051 37.116733 14.444602 40.470614 16.031271 43.40186 L 18.456963 40.976168 C 17.403755 38.725269 16.814686 36.211472 16.814686 33.556466 C 16.814686 30.901216 17.404089 28.387519 18.45748 26.136248 L 16.031788 23.710556 z M 52.55824 23.712623 L 50.134615 26.136248 C 51.188162 28.387469 51.777409 30.901294 51.777409 33.556466 C 51.777409 36.211883 51.187828 38.726035 50.134099 40.977202 L 52.55824 43.40186 C 54.144915 40.47061 55.046977 37.11674 55.046977 33.556466 C 55.046977 29.996517 54.144645 26.643683 52.55824 23.712623 z M 41.716008 49.394259 C 39.464581 50.447828 36.950243 51.037053 34.294756 51.037053 C 31.639923 51.037053 29.126358 50.448372 26.87557 49.395293 L 24.450912 51.819951 C 27.381972 53.406356 30.734808 54.308688 34.294756 54.308688 C 37.855277 54.308688 41.20927 53.406315 44.140666 51.819434 L 41.716008 49.394259 z " />
          <rect
             style="fill:#ffffff;fill-opacity:1;stroke:none;stroke-width:2.64583;stroke-linecap:square"
             id="rect10352"
             width="52.916664"
             height="7.9375"
             x="21.520094"
             y="-4.4911642"
             transform="rotate(45)" />
          <rect
             style="fill:#ffffff;fill-opacity:1;stroke:none;stroke-width:2.64583;stroke-linecap:square"
             id="rect10769"
             width="52.916664"
             height="7.9375"
             x="-26.980747"
             y="44.009674"
             transform="matrix(-0.70710678,0.70710678,0.70710678,0.70710678,0,0)" />
        </g>
      </g>
    </g>
  </g>
</svg>
