<?xml version="1.0" encoding="UTF-8" standalone="no"?>
<!-- Created with Inkscape (http://www.inkscape.org/) -->

<svg
   width="256"
   height="256"
   viewBox="0 0 67.733332 67.733333"
   version="1.1"
   id="svg5"
   inkscape:version="1.2.1 (9c6d41e410, 2022-07-14)"
   sodipodi:docname="disconnect_from_all_nodes.svg"
   xml:space="preserve"
   xmlns:inkscape="http://www.inkscape.org/namespaces/inkscape"
   xmlns:sodipodi="http://sodipodi.sourceforge.net/DTD/sodipodi-0.dtd"
   xmlns="http://www.w3.org/2000/svg"
   xmlns:svg="http://www.w3.org/2000/svg"><sodipodi:namedview
     id="namedview7"
     pagecolor="#1c1c1c"
     bordercolor="#0d0d0d"
     borderopacity="0.24705882"
     inkscape:showpageshadow="2"
     inkscape:pageopacity="0"
     inkscape:pagecheckerboard="0"
     inkscape:deskcolor="#0e0e0e"
     inkscape:document-units="px"
     showgrid="false"
     inkscape:zoom="1.4324916"
     inkscape:cx="-49.913033"
     inkscape:cy="87.60959"
     inkscape:window-width="1920"
     inkscape:window-height="991"
     inkscape:window-x="-9"
     inkscape:window-y="-9"
     inkscape:window-maximized="1"
     inkscape:current-layer="g17382" /><defs
     id="defs2"><rect
       x="11.846885"
       y="67.625967"
       width="39.242806"
       height="40.230046"
       id="rect15844" /><rect
       x="17.029897"
       y="68.366398"
       width="99.958091"
       height="115.01351"
       id="rect15730" /><linearGradient
       id="linearGradient1671"
       inkscape:swatch="solid"><stop
         style="stop-color:#000000;stop-opacity:1;"
         offset="0"
         id="stop1669" /></linearGradient></defs><g
     inkscape:label="Layer 1"
     inkscape:groupmode="layer"
     id="layer1"><g
       id="g1753"><g
         id="g17382"><path
           id="path788-75"
           style="fill:#ffffff;fill-opacity:1;stroke:none;stroke-width:1.56372;stroke-linecap:round;stroke-dasharray:none"
           d="m 32.62556,27.620845 c -3.427075,8e-6 -6.205267,2.778199 -6.205274,6.205274 7e-6,3.427075 2.778199,6.205267 6.205274,6.205274 3.427075,-7e-6 6.205267,-2.778199 6.205274,-6.205274 -7e-6,-3.427075 -2.778199,-6.205266 -6.205274,-6.205274 z"
           sodipodi:nodetypes="ccccc" /><path
           id="path788-7-3"
           style="color:#000000;fill:#ffffff;stroke-linecap:round;opacity:1"
           d="M 31.52314 23.978898 C 30.218375 24.126332 28.922851 24.534727 27.713554 25.228951 C 24.002325 27.359459 22.187572 31.541852 22.877156 35.533231 L 24.310144 34.68212 C 24.281731 34.401042 24.266736 34.116125 24.266736 33.827392 C 24.266736 30.312851 26.423351 27.313176 29.488122 26.074894 C 29.507099 26.067201 29.525928 26.059195 29.544966 26.051639 C 29.603134 26.028637 29.661862 26.006188 29.720666 25.98446 C 29.765234 25.967992 29.810101 25.952129 29.855025 25.936401 C 29.880293 25.927514 29.905626 25.918693 29.930989 25.910046 C 29.944238 25.905551 29.957501 25.90104 29.97078 25.89661 C 30.026204 25.878027 30.081835 25.859781 30.137695 25.84235 C 30.440298 25.747922 30.748929 25.67046 31.062703 25.61084 L 31.52314 23.978898 z M 38.549068 25.871806 L 38.093282 27.487728 C 38.796392 28.091666 39.412256 28.821891 39.900923 29.673124 C 41.152824 31.853865 41.316646 34.354874 40.561348 36.553841 L 41.735953 37.753767 C 41.866387 37.452526 41.982605 37.143368 42.083219 36.827726 C 42.105757 36.75702 42.127346 36.686195 42.148331 36.614819 C 42.156 36.588574 42.163087 36.562107 42.170552 36.535754 C 42.186198 36.480849 42.201826 36.425674 42.216544 36.370389 C 42.22491 36.338805 42.232757 36.307038 42.240832 36.275305 C 42.251993 36.231634 42.263327 36.187945 42.273905 36.144047 C 42.286398 36.092027 42.29794 36.040009 42.309562 35.987984 C 42.315927 35.959541 42.322562 35.931251 42.328682 35.902718 C 42.340772 35.846292 42.352231 35.789638 42.363305 35.733219 C 42.368471 35.70688 42.373852 35.680567 42.378808 35.654154 C 42.389362 35.597999 42.398708 35.541823 42.408264 35.485689 C 42.412891 35.458421 42.417813 35.431383 42.422216 35.40404 C 42.429191 35.360901 42.435463 35.317968 42.441853 35.274849 C 42.44875 35.228073 42.45577 35.181274 42.462007 35.134289 C 42.465669 35.10688 42.468915 35.079521 42.472342 35.052124 C 42.479342 34.995776 42.486452 34.93926 42.492496 34.882625 C 42.495089 34.858529 42.497318 34.834362 42.499731 34.810278 C 42.506167 34.745452 42.512129 34.680644 42.517301 34.615458 C 42.517606 34.611658 42.518034 34.607888 42.518334 34.604089 C 42.518952 34.596195 42.519286 34.588216 42.519885 34.580318 C 42.525674 34.503907 42.530837 34.427241 42.534871 34.350358 C 42.534935 34.349153 42.534807 34.347945 42.534871 34.34674 C 42.534987 34.344504 42.535273 34.342259 42.535388 34.340022 C 42.539521 34.259637 42.542499 34.179057 42.544689 34.098177 C 42.544784 34.094728 42.545115 34.09129 42.545206 34.087841 C 42.545305 34.084061 42.545112 34.080254 42.545206 34.076473 C 42.54727 33.993619 42.548307 33.910738 42.548307 33.827392 C 42.548307 33.741917 42.547367 33.656558 42.545206 33.571594 C 42.543138 33.490257 42.539929 33.409043 42.535904 33.328198 C 42.53572 33.324581 42.535576 33.320962 42.535388 33.317346 C 42.535141 33.312499 42.534608 33.307721 42.534354 33.302876 C 42.530924 33.237332 42.526654 33.172229 42.521952 33.107023 C 42.520127 33.082203 42.518279 33.057394 42.516267 33.032609 C 42.512437 32.984517 42.508382 32.936329 42.503865 32.888431 C 42.498636 32.833959 42.492938 32.779424 42.486812 32.725134 C 42.486564 32.722899 42.486545 32.720651 42.486295 32.718416 C 42.486 32.71582 42.485558 32.71326 42.485262 32.710664 C 42.47637 32.632896 42.467041 32.555487 42.456323 32.478121 C 42.212663 30.71925 41.49917 29.067789 40.418721 27.692366 C 40.379162 27.642008 40.338853 27.592632 40.298315 27.543021 C 40.29202 27.53535 40.286029 27.527419 40.279711 27.519767 C 39.771184 26.90385 39.189806 26.350085 38.549068 25.871806 z M 28.128515 40.877091 L 26.667106 41.745772 C 28.128019 42.847801 29.862817 43.51853 31.66215 43.701725 C 31.812776 43.716325 31.964405 43.728591 32.116902 43.736348 C 32.285758 43.744937 32.455481 43.749267 32.626432 43.749267 C 32.97954 43.749267 33.328258 43.730273 33.671846 43.693973 C 33.672358 43.693918 33.672885 43.694028 33.673396 43.693973 C 33.673567 43.693955 33.673743 43.693991 33.673913 43.693973 C 33.738869 43.687097 33.803639 43.678852 33.868217 43.670719 C 33.897781 43.666953 33.927595 43.663897 33.9571 43.659867 C 33.987045 43.655819 34.01664 43.650747 34.0465 43.646431 C 34.102692 43.63823 34.159004 43.630266 34.214965 43.621109 C 35.042938 43.48563 35.844471 43.245183 36.602933 42.912109 L 35.435046 41.7189 C 33.625901 42.361117 31.695998 42.343384 29.954244 41.749906 C 29.946857 41.747426 29.9394 41.745171 29.932023 41.742671 C 29.898291 41.731073 29.864841 41.719045 29.831254 41.707014 C 29.228899 41.494203 28.658091 41.214864 28.128515 40.877091 z " /><path
           id="path19145"
           style="color:#000000;fill:#ffffff;stroke-linecap:round;-inkscape-stroke:none"
           d="M 38.592993 18.847945 L 33.704402 23.737052 L 33.459456 23.492106 L 31.197062 31.390332 A 1.984375 1.984375 0 0 0 30.67358 31.757751 A 1.984375 1.984375 0 0 0 30.088602 33.025891 L 21.852413 38.079329 L 24.117391 40.344307 L 21.525818 42.93588 L 30.502014 37.430273 A 1.984375 1.984375 0 0 0 31.38103 37.956856 A 1.984375 1.984375 0 0 0 33.400545 37.368778 L 39.448754 43.530676 L 42.255818 40.724129 L 35.820035 34.168457 L 35.909952 34.113163 A 1.984375 1.984375 0 0 0 36.564693 31.38258 A 1.984375 1.984375 0 0 0 35.56372 30.564542 L 38.846724 19.101676 L 38.592993 18.847945 z " /><path
           id="rect10352"
           style="fill:#ffffff;fill-opacity:1;stroke:none;stroke-width:0.985446;stroke-linecap:square"
           d="m 43.482449,6.3658343 -4.888476,4.8884767 -4.888475,-4.8884767 -2.393745,2.393746 4.888475,4.8884757 -4.888476,4.888476 2.393745,2.393745 4.888476,-4.888476 4.888476,4.888476 2.393746,-2.393745 -4.888477,-4.888476 4.888477,-4.8884757 z" /><path
           id="path23098"
           style="fill:#ffffff;fill-opacity:1;stroke:none;stroke-width:0.985446;stroke-linecap:square"
           d="m 53.456329,42.105573 -4.888476,4.888476 -4.888475,-4.888476 -2.393745,2.393746 4.888475,4.888475 -4.888476,4.888476 2.393745,2.393745 4.888476,-4.888476 4.888476,4.888476 2.393746,-2.393745 -4.888477,-4.888476 4.888477,-4.888475 z" /><path
           id="path23102"
           style="fill:#ffffff;fill-opacity:1;stroke:none;stroke-width:0.985446;stroke-linecap:square"
           d="m 18.91715,37.949789 -4.888476,4.888476 -4.8884747,-4.888476 -2.393745,2.393746 4.8884747,4.888475 -4.8884757,4.888476 2.393745,2.393745 4.8884757,-4.888476 4.888476,4.888476 2.393746,-2.393745 -4.888477,-4.888476 4.888477,-4.888475 z" /></g></g></g></svg>
