<?xml version="1.0" encoding="UTF-8" standalone="no"?>
<!-- Created with Inkscape (http://www.inkscape.org/) -->

<svg
   width="256"
   height="256"
   viewBox="0 0 67.733332 67.733333"
   version="1.1"
   id="svg5"
   inkscape:version="1.2.1 (9c6d41e410, 2022-07-14)"
   sodipodi:docname="disconnect_nodes.svg"
   xml:space="preserve"
   xmlns:inkscape="http://www.inkscape.org/namespaces/inkscape"
   xmlns:sodipodi="http://sodipodi.sourceforge.net/DTD/sodipodi-0.dtd"
   xmlns="http://www.w3.org/2000/svg"
   xmlns:svg="http://www.w3.org/2000/svg"><sodipodi:namedview
     id="namedview7"
     pagecolor="#1c1c1c"
     bordercolor="#0d0d0d"
     borderopacity="0.24705882"
     inkscape:showpageshadow="2"
     inkscape:pageopacity="0"
     inkscape:pagecheckerboard="0"
     inkscape:deskcolor="#0e0e0e"
     inkscape:document-units="px"
     showgrid="false"
     inkscape:zoom="1.4324916"
     inkscape:cx="21.291573"
     inkscape:cy="183.94523"
     inkscape:window-width="1920"
     inkscape:window-height="991"
     inkscape:window-x="-9"
     inkscape:window-y="-9"
     inkscape:window-maximized="1"
     inkscape:current-layer="g17382" /><defs
     id="defs2"><rect
       x="11.846885"
       y="67.625967"
       width="39.242806"
       height="40.230046"
       id="rect15844" /><rect
       x="17.029897"
       y="68.366398"
       width="99.958091"
       height="115.01351"
       id="rect15730" /><linearGradient
       id="linearGradient1671"
       inkscape:swatch="solid"><stop
         style="stop-color:#000000;stop-opacity:1;"
         offset="0"
         id="stop1669" /></linearGradient></defs><g
     inkscape:label="Layer 1"
     inkscape:groupmode="layer"
     id="layer1"><g
       id="g1753"><g
         id="g17382"><path
           id="path788-75"
           style="fill:#ffffff;fill-opacity:1;stroke:none;stroke-width:1.56372;stroke-linecap:round;stroke-dasharray:none"
           d="m 19.05,12.844726 c -3.427075,8e-6 -6.205267,2.778199 -6.205274,6.205274 7e-6,3.427075 2.778199,6.205267 6.205274,6.205274 3.427075,-7e-6 6.205267,-2.778199 6.205274,-6.205274 -7e-6,-3.427075 -2.778199,-6.205266 -6.205274,-6.205274 z"
           sodipodi:nodetypes="ccccc" /><path
           id="path788-7-3"
           style="color:#000000;fill:#ffffff;stroke-linecap:round"
           d="M 19.051033 9.1291584 C 13.580612 9.1291584 9.1291583 13.580611 9.1291584 19.051033 C 9.1291584 24.521458 13.580612 28.972908 19.051033 28.972908 C 20.465568 28.972908 21.810876 28.67392 23.029602 28.137817 L 21.846211 26.928589 C 20.972388 27.237685 20.03256 27.408146 19.051033 27.408146 C 14.425707 27.408146 10.691337 23.676364 10.691337 19.051033 C 10.691337 14.425704 14.425707 10.691337 19.051033 10.691337 C 23.676362 10.691337 27.408146 14.425704 27.408146 19.051033 C 27.408146 19.997301 27.249385 20.905102 26.961145 21.75216 L 28.160555 22.977409 C 28.682291 21.772443 28.972908 20.445433 28.972908 19.051033 C 28.972908 13.580611 24.521456 9.1291584 19.051033 9.1291584 z " /><path
           id="path17420"
           style="fill:#ffffff;fill-opacity:1;stroke:none;stroke-width:1.56372;stroke-linecap:round;stroke-dasharray:none"
           d="m 48.683333,42.478059 c -3.427075,8e-6 -6.205266,2.778199 -6.205274,6.205274 8e-6,3.427075 2.778199,6.205267 6.205274,6.205274 3.427075,-7e-6 6.205267,-2.778199 6.205274,-6.205274 -7e-6,-3.427075 -2.778199,-6.205266 -6.205274,-6.205274 z"
           sodipodi:nodetypes="ccccc" /><path
           id="path17629"
           style="color:#000000;fill:#ffffff;stroke-linecap:round"
           d="M 48.683849 38.761975 C 47.194777 38.761975 45.781826 39.092407 44.513045 39.682849 L 45.684033 40.879158 C 46.61503 40.52225 47.625542 40.324153 48.683849 40.324153 C 53.309177 40.324153 57.040962 44.05852 57.040962 48.683849 C 57.040962 53.30918 53.309177 57.040962 48.683849 57.040962 C 44.058522 57.040962 40.324153 53.30918 40.324153 48.683849 C 40.324153 47.815612 40.456914 46.979161 40.701391 46.192529 L 39.490612 44.955395 C 39.021624 46.107228 38.761975 47.365643 38.761975 48.683849 C 38.761975 54.154273 43.213428 58.605724 48.683849 58.605724 C 54.154272 58.605724 58.605724 54.154273 58.605724 48.683849 C 58.605724 43.213426 54.154272 38.761975 48.683849 38.761975 z " /><path
           id="path17612"
           style="color:#000000;opacity:1;fill:#ffffff;stroke-width:1.98438;stroke-linecap:round"
           d="M 18.638655 16.680635 A 1.984375 1.984375 0 0 0 17.451131 17.236157 A 1.984375 1.984375 0 0 0 17.421675 20.043221 L 24.985038 27.770914 L 27.791585 24.964367 L 20.257678 17.26768 A 1.984375 1.984375 0 0 0 18.638655 16.680635 z M 42.608768 40.101944 L 39.801704 42.909008 L 47.249829 50.519396 A 1.984375 1.984375 0 0 0 50.056892 50.548852 A 1.984375 1.984375 0 0 0 50.087898 47.742305 L 42.608768 40.101944 z " /><path
           id="rect10352"
           style="fill:#ffffff;fill-opacity:1;stroke:none;stroke-width:0.985446;stroke-linecap:square"
           d="m 38.755142,26.584445 -4.888476,4.888477 -4.888475,-4.888477 -2.393745,2.393746 4.888475,4.888476 -4.888476,4.888476 2.393745,2.393745 4.888476,-4.888476 4.888476,4.888476 2.393746,-2.393745 -4.888477,-4.888476 4.888477,-4.888476 z" /></g></g></g></svg>
