<?xml version="1.0" encoding="UTF-8" standalone="no"?>
<!-- Created with Inkscape (http://www.inkscape.org/) -->

<svg
   width="256"
   height="256"
   viewBox="0 0 67.733332 67.733333"
   version="1.1"
   id="svg5"
   inkscape:version="1.2.1 (9c6d41e410, 2022-07-14)"
   sodipodi:docname="node_info.svg"
   xml:space="preserve"
   xmlns:inkscape="http://www.inkscape.org/namespaces/inkscape"
   xmlns:sodipodi="http://sodipodi.sourceforge.net/DTD/sodipodi-0.dtd"
   xmlns="http://www.w3.org/2000/svg"
   xmlns:svg="http://www.w3.org/2000/svg"><sodipodi:namedview
     id="namedview7"
     pagecolor="#1c1c1c"
     bordercolor="#0d0d0d"
     borderopacity="0.24705882"
     inkscape:showpageshadow="2"
     inkscape:pageopacity="0"
     inkscape:pagecheckerboard="0"
     inkscape:deskcolor="#0e0e0e"
     inkscape:document-units="px"
     showgrid="false"
     inkscape:zoom="2.8649832"
     inkscape:cx="86.0389"
     inkscape:cy="131.41438"
     inkscape:window-width="1920"
     inkscape:window-height="991"
     inkscape:window-x="-9"
     inkscape:window-y="-9"
     inkscape:window-maximized="1"
     inkscape:current-layer="g1753" /><defs
     id="defs2"><rect
       x="11.846885"
       y="67.625967"
       width="39.242806"
       height="40.230046"
       id="rect15844" /><rect
       x="17.029897"
       y="68.366398"
       width="99.958091"
       height="115.01351"
       id="rect15730" /><linearGradient
       id="linearGradient1671"
       inkscape:swatch="solid"><stop
         style="stop-color:#000000;stop-opacity:1;"
         offset="0"
         id="stop1669" /></linearGradient></defs><g
     inkscape:label="Layer 1"
     inkscape:groupmode="layer"
     id="layer1"><g
       id="g1753"><g
         id="g17382"><path
           id="path788-75"
           style="fill:#ffffff;fill-opacity:1;stroke:none;stroke-width:3.27058;stroke-linecap:round;stroke-dasharray:none"
           d="M 33.866666 20.88813 A 12.978563 12.978563 0 0 0 20.88813 33.866666 A 12.978563 12.978563 0 0 0 33.866666 46.845202 A 12.978563 12.978563 0 0 0 46.845202 33.866666 A 12.978563 12.978563 0 0 0 33.866666 20.88813 z M 34.032548 23.183598 A 2.3383556 2.3383556 0 0 1 36.370906 25.521956 A 2.3383556 2.3383556 0 0 1 34.032548 27.860315 A 2.3383556 2.3383556 0 0 1 31.694189 25.521956 A 2.3383556 2.3383556 0 0 1 34.032548 23.183598 z M 29.783195 28.961023 L 36.396228 28.961023 L 36.499064 41.865144 L 37.985278 41.838789 L 38.027653 44.549735 L 29.70568 44.549735 L 29.70568 41.882714 L 31.590836 41.838789 L 31.532959 31.872473 L 31.508154 31.844567 L 31.483349 31.817179 L 29.783195 31.838366 L 29.783195 28.961023 z " /><ellipse
           style="fill:none;fill-opacity:1;stroke:#ffffff;stroke-width:3.27058;stroke-linecap:round;stroke-dasharray:none;stroke-opacity:1"
           id="path788-7-3"
           cx="33.866665"
           cy="33.866665"
           rx="19.11664"
           ry="19.116648" /><text
           xml:space="preserve"
           style="font-size:3.52777px;font-family:'Katahdin Round';-inkscape-font-specification:'Katahdin Round';fill:#ffffff;fill-opacity:1;stroke:none;stroke-width:2.64583;stroke-linecap:round;stroke-dasharray:3.96875, 5.95312;stroke-dashoffset:0;stroke-opacity:1"
           x="6.5301838"
           y="21.092495"
           id="text15840"><tspan
             sodipodi:role="line"
             id="tspan15838"
             style="stroke-width:2.64583"
             x="6.5301838"
             y="21.092495" /></text><text
           xml:space="preserve"
           transform="scale(0.26458333)"
           id="text15842"
           style="fill:#ffffff;stroke-width:10;stroke-linecap:round;stroke:none;font-size:40.00000001px;-inkscape-font-specification:'Katahdin Round';font-family:'Katahdin Round';fill-opacity:1;stroke-dasharray:14.99998081, 22.49997122;stroke-opacity:1;stroke-dashoffset:0;white-space:pre;shape-inside:url(#rect15844)" /></g></g></g></svg>
